<svg xmlns="http://www.w3.org/2000/svg" viewBox="0 0 2300 2300"><path d="M2065.9 1664.8l-95.5-98.4c-43.2-43.2-81.1-142-81.1-209.9 0-362.1 70.5-794.5-192.4-1085.3-137.5-152.1-341-246.3-546.4-246.3-210.6 0-418.2 98-556 256.5C341.7 572 411.6 997.8 411.6 1355.1c0 67.9-37.9 165.2-81.1 208.5l-95.5 95.5c-57.9 57.9-50.7 93-41.3 115.8 9.5 22.8 37.5 49.3 119.4 49.3h1674.7c81.9 0 110-26.5 119.4-49.3 9.4-22.8 16.7-52.2-41.3-110.1zm-78.1 59.4H313.1c-14.1 0-22.9 12.2-27.9 10.6 2.4-4.7 7.4-5.1 17.4-15.1l95.6-92.1c61.2-61.2 109.1-180.7 109.1-274.3 0-64.2-2.2-130.5-4.4-195.5-9.9-296.6-20-602.9 163.7-814.2 121.8-140 302.6-223.5 483.9-223.5 176.6 0 354.3 80.2 475.5 214.2 191.8 212.2 181.7 524.2 172 825.8-2.1 66.3-4.2 131.7-4.2 194.9 0 93.6 47.9 214.8 109.1 276.1l95.6 95.6c9.9 9.9 14.9 3.4 17.3 8.1-5.1 1.6-13.9-10.6-28-10.6zm-835.1 451.5c-83.5 0-151.5-51.5-151.5-151.5h-100c0 100 112.8 251.5 251.5 251.5s251.6-151.5 251.6-251.5h-100c0 100-68 151.5-151.6 151.5z"/></svg>