<svg xmlns="http://www.w3.org/2000/svg" viewBox="0 0 2300 2300"><path d="M1143 2024.1c-83.4 0-151.4-51.5-151.4-151.5h-100c0 100 112.8 251.5 251.5 251.5s251.5-151.5 251.5-251.5h-100c0 100-68 151.5-151.6 151.5zm797.1-432.3l-82.4-85.5c-37.3-37.3-70-122.8-70-181.4 0-312.4 60.8-685.7-166-936.7-118.6-131.2-294.2-212.7-471.5-212.7-181.7 0-360.8 84.5-479.8 221.3-218.1 250.8-157.7 618.2-157.7 926.5 0 58.6-32.7 142.6-70 179.9l-82.4 82.4c-50 50-43.8 102.5-35.6 122.1 8 19.8 32.2 64.9 102.9 64.9h1445.1c70.6 0 94.9-45.1 103-64.8 8.1-19.6 14.4-66.1-35.6-116zm-1513.2 80.8c.1 0 .3-9.9.4-10.1l82.5-87.2c54.8-54.9 97.8-165.8 97.8-249.5 0-55.1-1.9-113.2-3.8-171.1-8.4-253.5-17.1-516.2 138.3-694.8 102.7-118.1 255.3-189.2 408.1-189.2 148.9 0 298.8 67.5 401 180.6 162.1 179.3 153.5 445.9 145.2 703.6-1.9 57.4-3.7 113.8-3.7 168.5 0 83.7 43 192.2 97.8 247.1l82.5 92.1c.1.1.3 10 .4 10H426.9z"/></svg>