<svg xmlns="http://www.w3.org/2000/svg" viewBox="0 0 1500 1500"><path d="M1373.7 1112.3l-65-59.7c-29.4-29.4-55.2-93.1-55.2-139.3 0-246.5 48-539.1-131-737.1C1028.8 72.7 890.3 10.4 750.4 10.4c-143.3 0-284.7 66.7-378.5 174.6-172.1 197.9-124.5 487.7-124.5 731 0 46.2-25.8 112.5-55.2 141.9l-65 65c-39.4 39.4-34.5 50.1-28.1 65.6 6.4 15.5 25.5 20.3 81.3 20.3h1140.1c55.7 0 74.9-4.8 81.3-20.3 6.4-15.5 11.3-36.8-28.1-76.2zm-1133.5-3.5s107.2-130.5 107.2-203.5c0-43.7-1.5-83.6-3-129.5-6.5-195.2-13.2-394.3 102.9-527.8 76.4-87.8 189.7-137.6 303.1-137.6 110.5 0 221.8 50.2 297.8 134.2 121.2 134 114.5 339.2 108.1 537.6-1.5 45.5-2.9 90.4-2.9 133.8 0 73 107.2 192.8 107.2 192.8H240.2zm512.5 281.6c-45 0-81.6-81.6-81.6-81.6h-100c0 100 81.4 181.6 181.6 181.6 100.1 0 181.5-81.6 181.5-181.6h-100s-36.5 81.6-81.5 81.6z"/></svg>