<svg xmlns="http://www.w3.org/2000/svg" viewBox="0 0 2300 2300"><path d="M2024.5 894.7h-10v-10c10-40 20-80 20-120 0-260-210-460-460-460-80 0-160 20-240 70l-10 10-10-10c-100-160-280-260-470-260-310 0-560 250-560 560 0 30 0 70 10 100v10h-10c-130 30-230 160-230 290 0 170 140 300 300 300h440v-80h-440c-130 0-230-100-230-230 0-100 70-200 170-220l80-20-10-80c-10-30-10-60-10-90 0-270 220-480 480-480 170 0 320 90 410 230l50 70 70-40c60-40 130-50 200-50 210 0 390 170 390 390 0 30 0 70-10 100l-30 100 100 10c80 10 150 80 150 160 0 90-70 160-160 160h-500v80h500c130 0 240-110 240-240-9.9-130.1-99.9-230.1-220-250zm-829.9 290h-100v500h-360l410 500 410-500h-360v-500zm150 579.9l-200 240-200-240h400z"/></svg>