<svg xmlns="http://www.w3.org/2000/svg" viewBox="0 0 15 15"><path d="M14.943 6.785c-.903-2.707-4.032-4.671-7.44-4.671C4.07 2.114.938 4.096.055 6.827l-.05.346.052.156C.96 10.035 4.087 12 7.491 12h.006c3.432 0 6.563-1.982 7.446-4.711l.083-.251-.083-.253zM7.5 3.75a2.69 2.69 0 0 1 2.682 2.693c0 1.473-1.203 2.67-2.682 2.67S4.818 7.91 4.818 6.431A2.685 2.685 0 0 1 7.5 3.75zM7.497 11h-.006c-2.913 0-5.677-1.684-6.464-3.927.583-1.711 2.311-3.096 4.388-3.67a3.674 3.674 0 0 0-1.597 3.028c0 2.031 1.651 3.682 3.682 3.682s3.682-1.646 3.682-3.67A3.691 3.691 0 0 0 9.58 3.4c2.036.564 3.748 1.919 4.392 3.643C13.199 9.304 10.431 11 7.497 11z"/></svg>