<svg xmlns="http://www.w3.org/2000/svg" viewBox="0 0 23 23"><path d="M22.925 11.146C21.544 7.005 16.741 4 11.505 4 6.232 4 1.424 7.032.073 11.208l-.099.306.102.305c1.382 4.141 6.18 7.146 11.41 7.146h.009c5.272 0 10.08-3.031 11.432-7.207l.1-.307-.102-.305zm-11.43 6.819h-.009c-4.732 0-9.227-2.774-10.459-6.456C2.23 7.802 6.724 5.007 11.488 5.001A5.505 5.505 0 0 0 6 10.5c0 3.033 2.467 5.5 5.5 5.5 3.032 0 5.5-2.459 5.5-5.481C17 7.476 14.533 5.001 11.502 5h.003c4.737 0 9.235 2.774 10.469 6.455-1.205 3.712-5.708 6.51-10.479 6.51zM11.5 6c2.481 0 4.5 2.027 4.5 4.519C16 12.99 13.981 15 11.5 15S7 12.981 7 10.5 9.019 6 11.5 6z"/><path d="M11.5 12.633c1.158 0 2.1-.942 2.1-2.1s-.941-2.1-2.1-2.1-2.1.942-2.1 2.1.942 2.1 2.1 2.1zm0-3.2c.606 0 1.1.494 1.1 1.1s-.493 1.1-1.1 1.1-1.1-.494-1.1-1.1.494-1.1 1.1-1.1z"/></svg>