<svg xmlns="http://www.w3.org/2000/svg" viewBox="0 0 15 15"><path d="M13.5 7.5c0-.4 0-.7-.1-1.1l1.6-.9L13 2l-1.6.9c-.6-.5-1.2-.8-1.9-1.1V0h-4v1.8c-.7.3-1.3.7-1.9 1.1L2 2 0 5.5l1.6.9c-.1.4-.1.7-.1 1.1s0 .7.1 1.1L0 9.5 2 13l1.6-.9c.6.5 1.2.8 1.9 1.1V15h4v-1.8c.7-.2 1.3-.6 1.9-1.1l1.6.9 2-3.5-1.6-.9c.1-.4.1-.7.1-1.1zm.1 2.4l-1 1.7-1.4-.8-.2.3c-.6.6-1.3 1-2.1 1.2l-.4.1V14h-2v-1.6l-.4-.1c-.8-.2-1.5-.6-2.1-1.2l-.3-.3-1.4.8-1-1.7 1.4-.8v-.4c-.1-.4-.2-.8-.2-1.2s.1-.8.2-1.2l.1-.4-1.4-.8 1-1.7 1.4.8.2-.3c.6-.6 1.3-1 2.1-1.2l.4-.1V1h2v1.6l.4.1c.8.2 1.5.6 2.1 1.2l.3.3 1.4-.8 1 1.7-1.4.8.1.4c.1.4.2.8.2 1.2s-.1.8-.2 1.2l-.1.4 1.3.8z"/><path d="M9.3 6.7c.1.3.2.5.2.8 0 1.1-.9 2-2 2s-2-.9-2-2 .9-2 2-2v-1c-1.7 0-3 1.3-3 3s1.3 3 3 3 3-1.3 3-3c0-.6-.2-1.1-.4-1.6l-.8.8z"/></svg>