<svg xmlns="http://www.w3.org/2000/svg" viewBox="0 0 23 23"><path d="M14.2 22H8.8v-2.6c-1.1-.4-2.1-.9-3-1.7L3.5 19 .8 14.4l2.3-1.3c-.1-.5-.2-1.1-.2-1.7 0-.5.1-1.1.2-1.7L.8 8.5 3.5 4l2.3 1.3c.9-.8 1.9-1.3 3-1.7V1h5.4v2.6c1.1.4 2.1.9 3 1.7L19.5 4l2.7 4.6-2.3 1.3c.1.6.2 1.1.2 1.7s-.1 1.1-.2 1.7l2.3 1.3-2.7 4.4-2.3-1.3c-.9.8-1.9 1.3-3 1.7V22zm-4.4-1h3.4v-2.3l.4-.1c1.2-.3 2.3-.9 3.2-1.8l.3-.3 2.1 1.2 1.7-2.9-2.1-1.2.1-.4c.2-.6.2-1.2.2-1.8 0-.6-.1-1.2-.2-1.8l-.1-.4L20.9 8l-1.7-2.9L17 6.5l-.3-.3c-.9-.9-2-1.5-3.2-1.8l-.4-.1V2H9.8v2.3l-.4.1c-1.2.4-2.3 1-3.2 1.8l-.2.3-2.1-1.2-1.7 2.9 2.1 1.2-.1.3c-.2.6-.2 1.2-.2 1.8 0 .6.1 1.2.2 1.8l.1.4-2.1 1.2 1.7 2.9L6 16.5l.3.3c.9.9 2 1.5 3.2 1.8l.4.1V21z"/><path d="M13.4 15.9C11 17 8.1 15.9 7 13.5s.1-5.3 2.6-6.4c.6-.3 1.2-.4 1.8-.4v1c-.5 0-1 .1-1.5.3-2 .9-2.9 3.1-2 5 .9 2 3.2 2.8 5.1 2 2-.9 2.9-3.1 2-5-.1-.2-.2-.4-.3-.5l.8-.5c.1.2.3.4.4.7 1.2 2.2 0 5.1-2.5 6.2z"/></svg>