<svg xmlns="http://www.w3.org/2000/svg" viewBox="0 0 2300 2300"><path d="M1750 399.5c-40 0-70 10-100 30v-50c0-110-90-200-200-200-40 0-80 20-120 40-30-70-100-120-180-120-100 0-190 80-200 180-30-20-60-30-100-30-110 0-200 90-200 200v330c-50-50-130-80-210-80h-90v750c0 410 360 750 800 750s800-340 800-750v-850c0-110-90-200-200-200zm100 1050c0 360-310 650-700 650s-700-290-700-650v-650c110 10 200 100 200 210v330h100v-890c0-50 50-100 100-100s100 50 100 100v660h100v-810c0-50 50-100 100-100s100 50 100 100v800h100v-720c0-50 50-100 100-100s100 50 100 100v730h100v-510c0-50 50-100 100-100s100 50 100 100v850z"/></svg>