<svg xmlns="http://www.w3.org/2000/svg" viewBox="0 0 23 23"><path d="M13.609 8.988l-.707-.708-5.62 5.605a1.992 1.992 0 0 0 0 2.814 1.994 1.994 0 0 0 2.814 0l8.858-8.858c.658-.658 1.021-1.532 1.021-2.462s-.362-1.805-1.021-2.463c-1.247-1.248-3.387-1.325-4.717-.192l-.007-.007-.2.2-9.566 9.548C3.52 13.409 3 14.664 3 16s.52 2.591 1.464 3.535S6.665 21 8 21s2.591-.521 3.536-1.465l6.331-6.334-.707-.707-6.331 6.334c-1.511 1.512-4.146 1.512-5.657 0C4.416 18.073 4 17.068 4 16s.416-2.073 1.171-2.828l9.582-9.564c.94-.923 2.563-.916 3.495.016.469.469.728 1.093.728 1.756s-.259 1.287-.728 1.755L9.39 15.993a.99.99 0 1 1-1.4-1.399l5.619-5.606z"/></svg>