<svg xmlns="http://www.w3.org/2000/svg" viewBox="0 0 23 23"><path d="M13.9 11.7c.5.2 1.1.3 1.6.3.6 0 1.2-.1 1.8-.4 1.1-.5 1.9-1.4 2.4-2.5.4-1.1.4-2.3-.1-3.4s-1.4-1.9-2.5-2.4c-1.1-.4-2.3-.4-3.4.1s-1.9 1.4-2.4 2.5c-.4 1.1-.4 2.3.1 3.4s1.3 2 2.5 2.4zm-1.7-5.5c.3-.9 1-1.6 1.9-1.9.4-.2.9-.3 1.4-.3.4 0 .9.1 1.3.2.9.3 1.6 1 1.9 1.9.4.9.4 1.8.1 2.7-.3.9-1 1.6-1.9 1.9-.9.4-1.8.4-2.7.1s-1.6-1-1.9-1.9c-.4-.8-.4-1.8-.1-2.7zM4.6 8.7c.4.2.9.3 1.4.3.5 0 1.1-.1 1.6-.3 1-.4 1.7-1.2 2.1-2.2.4-1 .4-2.1-.1-3.1-.4-1-1.2-1.7-2.2-2.1-1-.4-2.1-.4-3.1.1-1 .4-1.7 1.2-2.1 2.2-.4 1-.4 2.1.1 3.1.5.9 1.3 1.6 2.3 2zM3.2 3.9c.3-.7.9-1.3 1.6-1.7.4-.1.8-.2 1.2-.2.4 0 .7.1 1.1.2.7.3 1.3.9 1.7 1.6.3.7.3 1.5.1 2.3-.4.7-1 1.3-1.7 1.6-.7.4-1.5.4-2.3.1-.7-.3-1.3-.9-1.6-1.6-.4-.7-.4-1.5-.1-2.3zM20.5 14h-10C9.1 14 8 15.1 8 16.5V20h1v-3.5c0-.8.7-1.5 1.5-1.5h10c.8 0 1.5.7 1.5 1.5V20h1v-3.5c0-1.4-1.1-2.5-2.5-2.5zM8 11H2.5C1.1 11 0 12.1 0 13.5V18h1v-4.5c0-.8.7-1.5 1.5-1.5H8v-1z"/></svg>