<svg data-name="Layer 1" xmlns="http://www.w3.org/2000/svg" viewBox="0 0 15 15"><title>pillar-neutral--s</title><path d="M12.138 4.825a5.445 5.445 0 0 0-7.42-1.976 5.31 5.31 0 0 0-1.991 1.992 5.437 5.437 0 0 0-.006 5.42 5.368 5.368 0 0 0 1.982 2 5.415 5.415 0 0 0 5.451.006 5.436 5.436 0 0 0 1.992-1.991 5.414 5.414 0 0 0-.007-5.451zM8.79 8.341a1.56 1.56 0 0 1-.572.571 1.554 1.554 0 0 1-1.565 0 1.562 1.562 0 0 1-.567-2.13 1.523 1.523 0 0 1 .571-.572 1.563 1.563 0 0 1 2.13.567 1.554 1.554 0 0 1 0 1.565z"/></svg>