<svg xmlns="http://www.w3.org/2000/svg" viewBox="0 0 23 23"><path d="M10.5 19.5h2v-2h-2v2zM11.485 0C5.152 0 0 5.152 0 11.484 0 17.817 5.152 22.97 11.485 22.97c6.326 0 11.473-5.152 11.473-11.486C22.958 5.152 17.812 0 11.485 0zm0 21.97C5.704 21.97 1 17.266 1 11.484 1 5.703 5.704 1 11.485 1c5.774 0 10.473 4.703 10.473 10.484 0 5.782-4.698 10.486-10.473 10.486zm-.024-17.694c-2.43 0-3.55 1.067-4.062 1.962-.585 1.026-.585 2.147-.585 2.686h1.5c0-.441 0-1.262.389-1.942.463-.811 1.366-1.206 2.759-1.206 1.145 0 2.021.253 2.522.724.42.41.624.874.642 1.412-.049 1.536-.736 2.269-1.801 3.233-.841.829-2.112 2.081-2.113 4.6h1.5c0-1.892.885-2.763 1.642-3.51.928-.839 2.197-1.987 2.271-4.322a3.527 3.527 0 0 0-1.105-2.497c-.806-.756-2.003-1.14-3.559-1.14z"/></svg>