<svg xmlns="http://www.w3.org/2000/svg" viewBox="0 0 23 23"><switch><g><path d="M10.958 17.636h1.5v-1.5h-1.5v1.5zm.799-12c-1.906 0-2.791.849-3.196 1.56-.463.809-.463 1.68-.463 2.099h1.5c0-.312 0-.892.265-1.355.309-.541.928-.804 1.894-.804.806 0 1.414.171 1.749.486.28.273.41.569.422.911-.034 1.072-.522 1.591-1.287 2.284-.65.641-1.633 1.608-1.634 3.569h1.5c0-1.333.604-1.926 1.163-2.479.718-.649 1.699-1.538 1.758-3.374a2.815 2.815 0 0 0-.886-1.996c-.638-.598-1.575-.901-2.785-.901zM11.763 2a9.5 9.5 0 1 0 0 19 9.5 9.5 0 0 0 0-19zm0 18c-4.687 0-8.5-3.813-8.5-8.5 0-4.687 3.813-8.5 8.5-8.5 4.687 0 8.5 3.813 8.5 8.5 0 4.687-3.813 8.5-8.5 8.5z"/></g></switch></svg>