<svg xmlns="http://www.w3.org/2000/svg" viewBox="0 0 15 15"><path d="M6.589 12.5h1.5V11h-1.5v1.5zM7.5 0C3.364 0 0 3.364 0 7.5S3.364 15 7.5 15 15 11.636 15 7.5 11.636 0 7.5 0zm0 14C3.916 14 1 11.084 1 7.5S3.916 1 7.5 1 14 3.916 14 7.5 11.084 14 7.5 14zM7.496 2.99c-1.519 0-2.23.688-2.561 1.265-.371.65-.371 1.337-.371 1.667h1.5c0-.216 0-.619.174-.923.072-.126.29-.509 1.258-.509.548 0 .971.114 1.181.312.175.17.252.347.26.543-.023.73-.351 1.078-.91 1.584-.479.472-1.281 1.261-1.281 2.81l1.5.001c0-.922.405-1.32.811-1.72.531-.48 1.334-1.207 1.38-2.675a2.307 2.307 0 0 0-.723-1.628c-.515-.483-1.261-.727-2.218-.727z"/></svg>