<svg data-name="Layer 1" xmlns="http://www.w3.org/2000/svg" viewBox="0 0 15 15"><title>sector-energy--s</title><path d="M7.843 8.723a3.661 3.661 0 0 1 1.094 2.009 1.482 1.482 0 0 1-1.475 1.486 1.521 1.521 0 0 1-1.085-.439 1.377 1.377 0 0 1-.461-1.022 1.579 1.579 0 0 1 .148-.625 5.9 5.9 0 0 1 .366-.692c.145-.235.3-.467.464-.692l.448-.618zM14 1v13H1V1zm-2.874 7.788a6.306 6.306 0 0 0-1.079-3.454 10.8 10.8 0 0 0-3.059-3.026L7 2.457V2.7a4.4 4.4 0 0 1-.146 1.15 3.061 3.061 0 0 1-.407.922 3.686 3.686 0 0 1-.767.781 10.616 10.616 0 0 0-1.534 1.384 3.369 3.369 0 0 0-.761 2.2 3.205 3.205 0 0 0 .547 1.754 4.021 4.021 0 0 0 1.478 1.363 3.931 3.931 0 0 0 1.917.511 3.65 3.65 0 0 0 1.932-.529 3.728 3.728 0 0 0 1.37-1.444 4.135 4.135 0 0 0 .497-2.004z"/></svg>