<svg data-name="Layer 1" xmlns="http://www.w3.org/2000/svg" viewBox="0 0 23 23"><title>sector-consumer-defensive</title><path d="M2 2.124h18.876V21H2zm17.321 5.482L6.307 6.387 5.9 4.138H3.349a.654.654 0 0 0-.493.208.676.676 0 0 0-.2.484.709.709 0 0 0 .692.692h1.436l1.747 9.486a1.915 1.915 0 0 0-1.142.666 1.891 1.891 0 0 0-.467 1.271 1.865 1.865 0 0 0 .584 1.4 1.972 1.972 0 0 0 2.767-.009 1.869 1.869 0 0 0 .489-1.946h8.6a.646.646 0 0 0 .484-.208.677.677 0 0 0 .2-.484.683.683 0 0 0-.682-.692H7.915l-.459-2.49 11.19-.874zm-2.762 11.113a1 1 0 0 0 .732-.308 1.034 1.034 0 0 0 0-1.473 1.04 1.04 0 1 0-1.467 1.473 1.012 1.012 0 0 0 .735.308z"/></svg>