<svg data-name="Layer 1" xmlns="http://www.w3.org/2000/svg" viewBox="0 0 23 23"><title>sector-basic-materials</title><path d="M21 21H2V2h19zM8.231 16.311l-.391-2.582a.571.571 0 0 0-.156-.408.506.506 0 0 0-.382-.165H4.19a.5.5 0 0 0-.382.165.569.569 0 0 0-.156.408l-.392 2.582zm2.842-3.937l-.391-2.6a.552.552 0 0 0-.148-.387.476.476 0 0 0-.365-.161H7.041a.518.518 0 0 0-.378.161.529.529 0 0 0-.161.387l-.391 2.6zM13.94 8.4l-.392-2.581a.556.556 0 0 0-.16-.4.5.5 0 0 0-.369-.169H9.882a.464.464 0 0 0-.365.169.584.584 0 0 0-.148.4L8.979 8.4zm0 7.908l-.392-2.581a.56.56 0 0 0-.16-.408.5.5 0 0 0-.369-.165H9.882a.47.47 0 0 0-.365.165.588.588 0 0 0-.148.408l-.391 2.581zm2.851-3.937l-.392-2.6a.546.546 0 0 0-.151-.387.49.49 0 0 0-.37-.161H12.75a.5.5 0 0 0-.378.161.543.543 0 0 0-.152.387l-.4 2.6zm2.851 3.937l-.392-2.581a.569.569 0 0 0-.156-.408.506.506 0 0 0-.383-.165H15.6a.506.506 0 0 0-.383.165.569.569 0 0 0-.156.408l-.392 2.581z"/></svg>