<svg data-name="Layer 1" xmlns="http://www.w3.org/2000/svg" viewBox="0 0 23 23"><title>sector-communication-services</title><path d="M11.753 14.262a.47.47 0 0 1 .137.338.438.438 0 0 1-.137.317.476.476 0 0 1-.668 0 .436.436 0 0 1-.138-.317.467.467 0 0 1 .138-.338.465.465 0 0 1 .668 0zm-2.3-1.871a.446.446 0 0 0-.325.137.476.476 0 0 0 0 .668.442.442 0 0 0 .325.137.471.471 0 1 0 0-.941zm1.962 3.469a.467.467 0 0 0-.334.128.426.426 0 0 0-.138.325.469.469 0 0 0 .138.339.467.467 0 0 0 .668 0 .472.472 0 0 0 .137-.339.429.429 0 0 0-.137-.325.47.47 0 0 0-.33-.129zM21 2v19H2V2zm-6 3.5L14.823 3h-1.312l-.163 2H9.334a1.3 1.3 0 0 0-.938.384 1.252 1.252 0 0 0-.4.934v12.2a1.464 1.464 0 0 0 .418 1.05A1.376 1.376 0 0 0 9.455 20h4.091a1.362 1.362 0 0 0 1.044-.441 1.483 1.483 0 0 0 .41-1.046zm-5.542 8.62a.436.436 0 0 0-.325.142A.466.466 0 0 0 9 14.6a.435.435 0 0 0 .137.317.446.446 0 0 0 .325.137.455.455 0 0 0 .334-.137.436.436 0 0 0 .138-.317.467.467 0 0 0-.138-.338.444.444 0 0 0-.338-.142zm0 1.739a.457.457 0 0 0-.325.128.426.426 0 0 0-.133.326.468.468 0 0 0 .137.339.439.439 0 0 0 .325.141.447.447 0 0 0 .334-.141.469.469 0 0 0 .138-.339.426.426 0 0 0-.138-.325.467.467 0 0 0-.338-.129zm3.905-3.469a.471.471 0 1 0 0 .941.468.468 0 0 0 .337-.131.465.465 0 0 0 0-.668.472.472 0 0 0-.337-.141zM12.457 6H10.57a1.611 1.611 0 0 0-1.107.411A1.281 1.281 0 0 0 9 7.4v1.2a1.27 1.27 0 0 0 .463 1 1.626 1.626 0 0 0 1.107.4h1.887a1.6 1.6 0 0 0 1.09-.4 1.28 1.28 0 0 0 .453-1V7.4a1.292 1.292 0 0 0-.449-.994A1.571 1.571 0 0 0 12.457 6zm-1.038 6.391a.467.467 0 1 0 .334.137.455.455 0 0 0-.334-.137zm1.943 3.469a.47.47 0 0 0-.334.128.429.429 0 0 0-.137.325.472.472 0 0 0 .137.339.45.45 0 0 0 .334.141.482.482 0 0 0 .48-.479.423.423 0 0 0-.142-.325.485.485 0 0 0-.337-.13zm0-1.739a.447.447 0 0 0-.334.142.47.47 0 0 0-.137.338.438.438 0 0 0 .137.317.458.458 0 0 0 .334.137.472.472 0 0 0 .339-.137.432.432 0 0 0 .142-.317.484.484 0 0 0-.48-.479z"/></svg>