<svg data-name="Layer 1" xmlns="http://www.w3.org/2000/svg" viewBox="0 0 23 23"><title>sector-energy</title><path d="M12.264 13.494a5.491 5.491 0 0 1 1.636 3.014 2.222 2.222 0 0 1-2.211 2.229 2.281 2.281 0 0 1-1.627-.659 2.061 2.061 0 0 1-.691-1.534 2.355 2.355 0 0 1 .223-.937 8.663 8.663 0 0 1 .549-1.039q.325-.53.7-1.038l.673-.928zM21 2v19H2V2zm-3.812 11.593a9.457 9.457 0 0 0-1.618-5.182 16.172 16.172 0 0 0-4.588-4.538L11 4.1v.365a6.587 6.587 0 0 1-.218 1.726 4.563 4.563 0 0 1-.611 1.383 5.488 5.488 0 0 1-1.15 1.172 16.069 16.069 0 0 0-2.3 2.073 5.051 5.051 0 0 0-1.141 3.3 4.8 4.8 0 0 0 .82 2.631 6.029 6.029 0 0 0 2.216 2.042 5.893 5.893 0 0 0 2.876.767 5.5 5.5 0 0 0 2.9-.793 5.619 5.619 0 0 0 2.052-2.166 6.207 6.207 0 0 0 .744-3.007z"/></svg>