<svg data-name="Layer 1" xmlns="http://www.w3.org/2000/svg" viewBox="0 0 15 15"><title>sector-communication-services--s</title><path d="M6.526 9.2a.308.308 0 0 0-.229.1.328.328 0 0 0-.1.237.3.3 0 0 0 .1.223.312.312 0 0 0 .229.1.32.32 0 0 0 .235-.1.307.307 0 0 0 .1-.223.331.331 0 0 0-.1-.237.315.315 0 0 0-.235-.1zm.974-.974a.331.331 0 1 0 .235.1.317.317 0 0 0-.235-.1zm0 1.942a.329.329 0 0 0-.234.091.3.3 0 0 0-.1.229.326.326 0 0 0 .1.237.326.326 0 0 0 .469 0 .326.326 0 0 0 .1-.237.3.3 0 0 0-.1-.229.331.331 0 0 0-.235-.091z"/><path d="M11 1H1v13h13V1zm-1 10.951a1.04 1.04 0 0 1-.293.738.978.978 0 0 1-.746.311H6.038a.988.988 0 0 1-.74-.308 1.026 1.026 0 0 1-.3-.741V3.922a1.141 1.141 0 0 1 .23-.634.946.946 0 0 1 .73-.288h3.12l.063-1h.8l.059.764z"/><path d="M8.55 9.214a.331.331 0 1 0 0 .663.33.33 0 0 0 .238-.1.328.328 0 0 0 0-.469.33.33 0 0 0-.238-.094zM9 5.949v-.9a1.089 1.089 0 0 0-.27-.745A.845.845 0 0 0 8.074 4H6.942a.867.867 0 0 0-.664.308A1.071 1.071 0 0 0 6 5.05v.9a1.063 1.063 0 0 0 .278.748.872.872 0 0 0 .664.3h1.132a.853.853 0 0 0 .653-.3A1.074 1.074 0 0 0 9 5.949z"/></svg>