<svg data-name="Layer 1" xmlns="http://www.w3.org/2000/svg" viewBox="0 0 23 23"><title>sector-industrials</title><path d="M2 2h19v19H2zm17 8.358l-1.874-.34a4.831 4.831 0 0 0-.626-1.483L17.588 7 16 5.412l-1.575 1.073A4.611 4.611 0 0 0 13 5.875L12.664 4h-2.249l-.375 1.875a5.508 5.508 0 0 0-1.525.625L6.963 5.412 5.43 7l1.02 1.587a6.261 6.261 0 0 0-.61 1.43L4 10.358v2.232l1.874.392a5.148 5.148 0 0 0 .593 1.418L5.43 16l1.534 1.552 1.551-1.09a5.694 5.694 0 0 0 1.526.663L10.415 19h2.249L13 17.125a5 5 0 0 0 1.421-.584L16 17.552 17.588 16 16.5 14.43a5.056 5.056 0 0 0 .645-1.465L19 12.59zm-7.519-1.766a3.023 3.023 0 0 1 3.031 3.049 3.074 3.074 0 0 1-.4 1.538 3.032 3.032 0 0 1-1.105 1.128 2.943 2.943 0 0 1-1.525.418 3.083 3.083 0 0 1-3.093-3.084A2.9 2.9 0 0 1 9.3 9.473a3.031 3.031 0 0 1 2.181-.881z"/></svg>