<svg data-name="Layer 1" xmlns="http://www.w3.org/2000/svg" viewBox="0 0 15 15"><title>sector-industrials--s</title><path d="M1 1h12.976v13H1zm11.58 5.737L11.3 6.5a3.311 3.311 0 0 0-.428-1.011l.743-1.046-1.08-1.077-1.076.734a3.145 3.145 0 0 0-.969-.417L8.258 2.4H6.725l-.256 1.281a3.766 3.766 0 0 0-1.041.429L4.37 3.366 3.323 4.448l.7 1.082a4.223 4.223 0 0 0-.423.97l-1.254.232v1.527l1.278.268a3.516 3.516 0 0 0 .4.963l-.708 1.094 1.054 1.058 1.058-.742a3.937 3.937 0 0 0 1.041.452l.256 1.278h1.533l.232-1.278a3.421 3.421 0 0 0 .969-.4l1.076.689 1.082-1.059-.743-1.069a3.49 3.49 0 0 0 .439-1l1.267-.256zm-5.1-1.291A2.041 2.041 0 0 1 9.524 7.5a2.068 2.068 0 0 1-.271 1.037 2.028 2.028 0 0 1-.746.761 1.979 1.979 0 0 1-1.028.283A2.081 2.081 0 0 1 5.393 7.5a1.954 1.954 0 0 1 .615-1.463 2.043 2.043 0 0 1 1.471-.591z"/></svg>