<svg data-name="Layer 1" xmlns="http://www.w3.org/2000/svg" viewBox="0 0 23 23"><title>sector-consumer-cyclical</title><path d="M2 2.124h19v19H2zm17.433 12.515v-2.2a2.56 2.56 0 0 0-.342-1.319 1.866 1.866 0 0 0-.912-.817 5.084 5.084 0 0 0-.922-2.418 5.184 5.184 0 0 0-1.982-1.725 6.121 6.121 0 0 0-4.135-.4 5.429 5.429 0 0 0-1.346.584 4.994 4.994 0 0 0-1.172.974 6.128 6.128 0 0 0-.887 1.319 4.979 4.979 0 0 0-.458 1.181 5.284 5.284 0 0 0-2.318.809 3.88 3.88 0 0 0-1.432 1.7 5.691 5.691 0 0 0-.463 2.311h1.2a1.573 1.573 0 0 0 .177.6 1.986 1.986 0 0 0 .424.619 1.9 1.9 0 0 0 .6.376 2.123 2.123 0 0 0 .809.143 1.962 1.962 0 0 0 1.358-.471 2.09 2.09 0 0 0 .657-1.268h5.632a1.7 1.7 0 0 0 .178.593 2.168 2.168 0 0 0 .44.666 1.983 1.983 0 0 0 .61.415 2.071 2.071 0 0 0 .831.151 2.159 2.159 0 0 0 1.012-.238 1.976 1.976 0 0 0 .753-.688 2.51 2.51 0 0 0 .381-.9zM8.8 9.56a3.149 3.149 0 0 1 1.025-1.826 3.323 3.323 0 0 1 1.994-.874v2.7zm4.1-2.769l.147-.017h.153a3.314 3.314 0 0 1 2.167.8 3.187 3.187 0 0 1 1.159 1.986H12.9z"/></svg>