<svg data-name="Layer 1" xmlns="http://www.w3.org/2000/svg" viewBox="0 0 15 15"><title>sector-technology--s</title><path d="M5 9h1v2H5V9zm2 1v1h1V9H7zm2.588-6.929H5.425a.492.492 0 0 0-.369.158.521.521 0 0 0-.156.371v3.812a.521.521 0 0 0 .151.375.491.491 0 0 0 .369.157h4.168a.534.534 0 0 0 .369-.144.494.494 0 0 0 .163-.384V3.6a.5.5 0 0 0-.16-.38.525.525 0 0 0-.372-.149zM14 1v13H1V1zm-1.812 8.795a.7.7 0 0 0-.2-.5.652.652 0 0 0-.494-.21H11.3V2.6a.7.7 0 0 0-.712-.7H4.422a.667.667 0 0 0-.5.207.683.683 0 0 0-.2.492v6.484h-.2a.678.678 0 0 0-.5.207.685.685 0 0 0-.207.5v2.22a.669.669 0 0 0 .207.492.678.678 0 0 0 .5.207H11.5a.651.651 0 0 0 .491-.213.686.686 0 0 0 .2-.486zM9 10v1h1V9H9z"/></svg>