<svg data-name="Layer 1" xmlns="http://www.w3.org/2000/svg" viewBox="0 0 23 23"><title>sector-utilities</title><path d="M2 2v19h19V2zm10.911 16.8a.451.451 0 0 1-.1.287.407.407 0 0 1-.27.15l-2.241.433h-.07a.466.466 0 0 1-.291-.1.474.474 0 0 1-.172-.27v-.077a.454.454 0 0 1 .1-.282.4.4 0 0 1 .271-.154l2.338-.42a.409.409 0 0 1 .273.1.514.514 0 0 1 .163.266zm.591-1.456a.447.447 0 0 1-.1.287.407.407 0 0 1-.27.15l-3.469.634H9.6a.451.451 0 0 1-.287-.1.4.4 0 0 1-.149-.27v-.069a.46.46 0 0 1 .094-.286.386.386 0 0 1 .257-.15l3.469-.634h.068a.451.451 0 0 1 .287.1.477.477 0 0 1 .167.27zM15.31 11a13.536 13.536 0 0 0-1.517 2.749 7.457 7.457 0 0 0-.462 2.561h-4a7.4 7.4 0 0 0-.467-2.564A13.994 13.994 0 0 0 7.353 11a4.541 4.541 0 0 1-.831-2.7 4.811 4.811 0 0 1 4.813-4.8 4.805 4.805 0 0 1 4.8 4.8 4.691 4.691 0 0 1-.825 2.7z"/></svg>