<svg data-name="Layer 1" xmlns="http://www.w3.org/2000/svg" viewBox="0 0 23 23"><title>sector-technology</title><path d="M11 16h1v1h-1zm-2-1h1v-1H9zm0 2h1v-1H9zm-2-2h1v-1H7zm4 0h1v-1h-1zm-4 2h1v-1H7zm8-2h1v-1h-1zm-2 2h1v-1h-1zm2 0h1v-1h-1zm6-15v19H2V2zm-2.687 13.084a1.03 1.03 0 0 0-.293-.734.969.969 0 0 0-.731-.307h-.282V5.076a1 1 0 0 0-.3-.719 1.013 1.013 0 0 0-.754-.3H6.847a1.025 1.025 0 0 0-1.032 1.019v8.967h-.3a1.041 1.041 0 0 0-1.042 1.041v3.239a.98.98 0 0 0 .306.72 1.009 1.009 0 0 0 .735.3h11.775a.964.964 0 0 0 .727-.312 1 1 0 0 0 .3-.711zM13 15h1v-1h-1zm2.26-3.4V6.551a.731.731 0 0 0-.237-.557.78.78 0 0 0-.548-.222H8.327A.731.731 0 0 0 7.783 6a.76.76 0 0 0-.223.548V11.6a.76.76 0 0 0 .223.548.73.73 0 0 0 .544.23h6.148a.8.8 0 0 0 .544-.217.717.717 0 0 0 .241-.561z"/></svg>