<svg data-name="Layer 1" xmlns="http://www.w3.org/2000/svg" viewBox="0 0 23 23"><title>sustainability</title><path d="M7.315 6.57a23.821 23.821 0 0 1-2.984-.7 9.441 9.441 0 0 1 2.64-2.251 9 9 0 0 1 3.174-1.112 13.987 13.987 0 0 0-1.451 1.8A18.782 18.782 0 0 0 7.315 6.57zm7.7 1.364a27.843 27.843 0 0 1-2.83.226v2.881h3.63a11.168 11.168 0 0 0-.799-3.107zm-9.074 4.327H2.332a8.767 8.767 0 0 0 1.261 4.071 25.7 25.7 0 0 1 3.168-.779 10.919 10.919 0 0 1-.82-3.292zm.82-4.522a25.066 25.066 0 0 1-3.168-.8 8.848 8.848 0 0 0-1.261 4.1h3.609a11.132 11.132 0 0 1 .821-3.3zm9.055 4.522h-3.63v2.871a19.47 19.47 0 0 1 2.83.215 10.713 10.713 0 0 0 .8-3.086zm1.322-1.22h3.609a9.328 9.328 0 0 0-1.262-4.1 24.489 24.489 0 0 1-3.168.8 10.907 10.907 0 0 1 .822 3.3zm-4.952-7.793V6.9a22.041 22.041 0 0 0 2.287-.144 23.348 23.348 0 0 0-2.287-3.508zm3.589 3.322a27.1 27.1 0 0 0 2.983-.7 9.6 9.6 0 0 0-2.676-2.27 9.079 9.079 0 0 0-3.147-1.092 13.387 13.387 0 0 1 1.44 1.779 19.281 19.281 0 0 1 1.4 2.283zM14.4 18.972a14.511 14.511 0 0 1-1.466 1.789 9.2 9.2 0 0 0 3.184-1.118 9.353 9.353 0 0 0 2.641-2.243 27.462 27.462 0 0 0-2.983-.667 17.723 17.723 0 0 1-1.376 2.239zm-2.214-2.6v3.671a22.02 22.02 0 0 0 2.287-3.527q-.882-.092-2.287-.143zM10.9 6.9V3.248a21.155 21.155 0 0 0-2.282 3.506A21.393 21.393 0 0 0 10.9 6.9zm5.414 8.654a27.639 27.639 0 0 1 3.168.779 9.013 9.013 0 0 0 1.262-4.071h-3.605a10.611 10.611 0 0 1-.821 3.29zm-9 1.179a25.81 25.81 0 0 0-2.984.667 9.351 9.351 0 0 0 5.814 3.363 14.26 14.26 0 0 1-1.434-1.755 18.174 18.174 0 0 1-1.395-2.277zm-.051-5.691H10.9V8.159a27.6 27.6 0 0 1-2.84-.226 10.274 10.274 0 0 0-.796 3.108zm3.64 9v-3.669q-1.436.051-2.287.144a19.816 19.816 0 0 0 2.284 3.526zm-2.84-4.7a19.548 19.548 0 0 1 2.84-.215v-2.866H7.264a10.352 10.352 0 0 0 .8 3.086z"/></svg>