<svg data-name="Layer 1" xmlns="http://www.w3.org/2000/svg" viewBox="0 0 15 15"><title>sustainability--s</title><path d="M2.021 4.261a17.913 17.913 0 0 0 2.264.571A7.951 7.951 0 0 0 3.7 7.191H1.121a6.319 6.319 0 0 1 .9-2.93zm0 6.709a6.273 6.273 0 0 1-.9-2.908H3.7a7.8 7.8 0 0 0 .586 2.351 18.367 18.367 0 0 0-2.265.557zM4.681 4a17.065 17.065 0 0 1-2.132-.5 6.733 6.733 0 0 1 1.887-1.608A6.417 6.417 0 0 1 6.7 1.1a9.977 9.977 0 0 0-1.034 1.282A13.4 13.4 0 0 0 4.681 4zm0 7.258a12.981 12.981 0 0 0 1 1.626 10.186 10.186 0 0 0 1.019 1.25 6.684 6.684 0 0 1-4.153-2.4 18.443 18.443 0 0 1 2.134-.478zm.534-6.284a19.724 19.724 0 0 0 2.029.161v2.056h-2.6a7.308 7.308 0 0 1 .571-2.219zm0 5.3a7.362 7.362 0 0 1-.57-2.2h2.6v2.051a13.969 13.969 0 0 0-2.03.142zm2.029-6.042a15.257 15.257 0 0 1-1.633-.1 15.045 15.045 0 0 1 1.633-2.5zm0 9.39A14.1 14.1 0 0 1 5.611 11.1q.606-.066 1.633-.1zm.916-12a16.721 16.721 0 0 1 1.633 2.5 15.751 15.751 0 0 1-1.633.1zm2.021 3.347a7.977 7.977 0 0 1 .57 2.219H8.16V5.133a19.948 19.948 0 0 0 2.022-.161zm0 5.3a13.936 13.936 0 0 0-2.021-.154V8.063h2.592a7.653 7.653 0 0 1-.57 2.204zM8.16 11q1 .037 1.633.1a15.817 15.817 0 0 1-1.633 2.52zm2.563-7a13.843 13.843 0 0 0-1-1.63A9.675 9.675 0 0 0 8.694 1.1a6.48 6.48 0 0 1 2.249.78 6.855 6.855 0 0 1 1.911 1.62 19.334 19.334 0 0 1-2.131.5zm0 7.258a19.627 19.627 0 0 1 2.132.476 6.69 6.69 0 0 1-1.886 1.6 6.582 6.582 0 0 1-2.274.8 10.433 10.433 0 0 0 1.048-1.278 12.634 12.634 0 0 0 .98-1.6zm2.652-6.995a6.675 6.675 0 0 1 .9 2.93H11.7a7.791 7.791 0 0 0-.586-2.358 17.577 17.577 0 0 0 2.261-.574zm0 6.709a19.8 19.8 0 0 0-2.264-.557 7.579 7.579 0 0 0 .589-2.352h2.578a6.449 6.449 0 0 1-.903 2.907z"/></svg>